<svg width="20" height="20" viewBox="0 0 20 20" fill="none" xmlns="http://www.w3.org/2000/svg">
<path d="M1.67065 7.91667V3.33333C1.67065 2.8731 2.04375 2.5 2.50399 2.5H17.504C17.9643 2.5 18.3373 2.8731 18.3373 3.33333V7.91667C17.1868 7.91667 16.254 8.84942 16.254 10C16.254 11.1506 17.1868 12.0833 18.3373 12.0833V16.6667C18.3373 17.1269 17.9643 17.5 17.504 17.5H2.50399C2.04375 17.5 1.67065 17.1269 1.67065 16.6667V12.0833C2.82125 12.0833 3.75399 11.1506 3.75399 10C3.75399 8.84942 2.82125 7.91667 1.67065 7.91667ZM3.33732 6.6398C4.57209 7.25343 5.42065 8.52758 5.42065 10C5.42065 11.4724 4.57209 12.7466 3.33732 13.3602V15.8333H16.6707V13.3602C15.4359 12.7466 14.5873 11.4724 14.5873 10C14.5873 8.52758 15.4359 7.25343 16.6707 6.6398V4.16667H3.33732V6.6398ZM7.50399 7.5H12.504V9.16667H7.50399V7.5ZM7.50399 10.8333H12.504V12.5H7.50399V10.8333Z" fill="#4338CA"/>
</svg>
