<svg width="21" height="20" viewBox="0 0 21 20" fill="none" xmlns="http://www.w3.org/2000/svg">
<path d="M15.3611 8.6111H16.0556C16.4391 8.6111 16.75 8.922 16.75 9.30554V16.25C16.75 16.6335 16.4391 16.9444 16.0556 16.9444H4.94444C4.56092 16.9444 4.25 16.6335 4.25 16.25V9.30554C4.25 8.922 4.56092 8.6111 4.94444 8.6111H5.63889V7.91665C5.63889 5.23194 7.81528 3.05554 10.5 3.05554C13.1847 3.05554 15.3611 5.23194 15.3611 7.91665V8.6111ZM5.63889 9.99999V15.5555H15.3611V9.99999H5.63889ZM9.80556 11.3889H11.1944V14.1667H9.80556V11.3889ZM13.9722 8.6111V7.91665C13.9722 5.999 12.4176 4.44443 10.5 4.44443C8.58235 4.44443 7.02778 5.999 7.02778 7.91665V8.6111H13.9722Z" fill="white"/>
</svg>
