<svg width="54" height="54" viewBox="0 0 54 54" fill="none" xmlns="http://www.w3.org/2000/svg">
<g filter="url(#filter0_dd_7725_1015)">
<path d="M3 26C3 12.7452 13.7452 2 27 2C40.2548 2 51 12.7452 51 26C51 39.2548 40.2548 50 27 50C13.7452 50 3 39.2548 3 26Z" fill="white"/>
<path d="M19.0044 20.4166L15.7617 17.174L17.1759 15.7598L20.4186 19.0024H35.6603C36.2126 19.0024 36.6603 19.4501 36.6603 20.0024C36.6603 20.0997 36.6461 20.1965 36.6182 20.2897L34.2182 28.2898C34.0913 28.7127 33.7019 29.0024 33.2603 29.0024H21.0044V31.0024H32.0044V33.0024H20.0044C19.4521 33.0024 19.0044 32.5547 19.0044 32.0024V20.4166ZM21.0044 21.0024V27.0024H32.5163L34.3163 21.0024H21.0044ZM20.5044 37.0024C19.6759 37.0024 19.0044 36.3308 19.0044 35.5024C19.0044 34.674 19.6759 34.0024 20.5044 34.0024C21.3328 34.0024 22.0044 34.674 22.0044 35.5024C22.0044 36.3308 21.3328 37.0024 20.5044 37.0024ZM32.5044 37.0024C31.6759 37.0024 31.0044 36.3308 31.0044 35.5024C31.0044 34.674 31.6759 34.0024 32.5044 34.0024C33.3328 34.0024 34.0044 34.674 34.0044 35.5024C34.0044 36.3308 33.3328 37.0024 32.5044 37.0024Z" fill="#4338CA"/>
</g>
<defs>
<filter id="filter0_dd_7725_1015" x="0" y="0" width="54" height="54" filterUnits="userSpaceOnUse" color-interpolation-filters="sRGB">
<feFlood flood-opacity="0" result="BackgroundImageFix"/>
<feColorMatrix in="SourceAlpha" type="matrix" values="0 0 0 0 0 0 0 0 0 0 0 0 0 0 0 0 0 0 127 0" result="hardAlpha"/>
<feOffset dy="1"/>
<feGaussianBlur stdDeviation="1"/>
<feColorMatrix type="matrix" values="0 0 0 0 0 0 0 0 0 0 0 0 0 0 0 0 0 0 0.06 0"/>
<feBlend mode="normal" in2="BackgroundImageFix" result="effect1_dropShadow_7725_1015"/>
<feColorMatrix in="SourceAlpha" type="matrix" values="0 0 0 0 0 0 0 0 0 0 0 0 0 0 0 0 0 0 127 0" result="hardAlpha"/>
<feOffset dy="1"/>
<feGaussianBlur stdDeviation="1.5"/>
<feColorMatrix type="matrix" values="0 0 0 0 0 0 0 0 0 0 0 0 0 0 0 0 0 0 0.1 0"/>
<feBlend mode="normal" in2="effect1_dropShadow_7725_1015" result="effect2_dropShadow_7725_1015"/>
<feBlend mode="normal" in="SourceGraphic" in2="effect2_dropShadow_7725_1015" result="shape"/>
</filter>
</defs>
</svg>
